<?xml version="1.0" standalone="no"?>
<!DOCTYPE svg PUBLIC "-//W3C//DTD SVG 20010904//EN"
 "http://www.w3.org/TR/2001/REC-SVG-20010904/DTD/svg10.dtd">
<svg version="1.0" xmlns="http://www.w3.org/2000/svg"
 width="300.000000pt" height="300.000000pt" viewBox="0 0 300.000000 300.000000"
 preserveAspectRatio="xMidYMid meet">
<metadata>
Created by potrace 1.10, written by Peter Selinger 2001-2011
</metadata>
<g transform="translate(0.000000,300.000000) scale(0.100000,-0.100000)"
fill="#000000" stroke="none">
<path d="M1397 2012 c-22 -24 -21 -45 2 -66 42 -38 94 22 56 64 -22 25 -37 25
-58 2z m51 -35 c2 -11 -3 -17 -17 -17 -23 0 -35 15 -26 31 10 15 39 6 43 -14z"/>
<path d="M1397 1872 c-22 -24 -21 -45 3 -67 18 -17 21 -17 45 -1 27 18 31 36
15 67 -13 24 -42 25 -63 1z m53 -28 c0 -19 -28 -30 -42 -16 -8 8 -8 15 1 26
14 17 41 10 41 -10z"/>
<path d="M1396 1734 c-19 -18 -20 -28 -6 -55 20 -37 80 -18 80 26 0 42 -44 59
-74 29z m49 -29 c0 -11 -7 -21 -16 -23 -18 -3 -33 23 -23 39 10 17 39 5 39
-16z"/>
<path d="M766 1671 c-19 -60 -16 -111 6 -111 9 0 9 3 0 12 -18 18 -15 49 8 86
11 18 20 41 20 52 0 37 -15 20 -34 -39z"/>
<path d="M825 1675 c-3 -11 -11 -28 -16 -37 -18 -35 -11 -58 18 -58 24 0 25 1
10 13 -15 10 -16 17 -6 44 6 18 9 38 6 45 -3 8 -7 6 -12 -7z"/>
<path d="M978 1662 c-31 -15 -66 -39 -78 -55 -27 -34 -73 -59 -97 -51 -12 4
-14 3 -5 -3 9 -7 5 -17 -18 -39 -16 -16 -30 -32 -30 -36 -1 -22 33 0 102 66
43 41 102 88 133 106 30 17 55 33 55 36 0 5 3 6 -62 -24z"/>
<path d="M1060 1656 c-88 -43 -230 -152 -230 -177 0 -21 27 -6 75 44 46 47
125 105 125 91 0 -2 -22 -33 -50 -68 -53 -68 -57 -76 -37 -76 6 0 25 20 41 45
15 25 52 71 82 102 30 32 54 59 54 60 0 6 -17 0 -60 -21z"/>
<path d="M1159 1663 c-12 -16 -12 -17 1 -6 9 6 40 13 70 16 l55 3 -56 2 c-44
2 -60 -2 -70 -15z"/>
<path d="M515 1660 c-3 -5 -33 -24 -66 -41 -140 -75 -202 -217 -143 -331 8
-15 24 -33 36 -39 17 -9 15 -4 -10 27 -28 33 -32 46 -32 94 0 36 7 71 20 99
27 54 103 129 156 152 23 11 44 26 48 34 6 17 0 20 -9 5z"/>
<path d="M1087 1599 c-20 -22 -52 -73 -73 -112 -51 -100 -99 -162 -157 -208
-58 -46 -41 -52 27 -8 72 45 69 41 142 189 38 77 89 159 108 172 8 5 7 8 -1 8
-6 0 -27 -18 -46 -41z"/>
<path d="M532 1608 c-7 -7 -12 -21 -12 -32 0 -15 3 -17 12 -8 10 10 22 52 15
52 -2 0 -8 -5 -15 -12z"/>
<path d="M1402 1604 c-27 -19 -28 -45 -2 -69 17 -15 24 -16 46 -7 31 15 30 57
-1 78 -18 12 -24 11 -43 -2z m45 -30 c8 -22 -18 -37 -36 -20 -7 8 -10 19 -7
25 10 16 36 13 43 -5z"/>
<path d="M1582 1595 c-7 -8 -19 -43 -28 -77 -8 -35 -18 -72 -21 -83 -4 -17 -3
-18 8 -7 8 7 23 47 34 89 l20 76 38 1 c21 1 42 -3 46 -9 5 -5 13 -37 20 -70 6
-33 14 -70 17 -82 6 -21 3 -23 -30 -23 -20 0 -36 5 -36 10 0 6 -11 10 -25 10
-14 0 -25 -4 -25 -10 0 -5 -9 -10 -20 -10 -11 0 -20 -5 -20 -11 0 -7 10 -9 28
-5 15 4 32 6 37 5 30 -4 723 -8 741 -4 22 5 44 43 44 75 0 63 -65 104 -129 82
-20 -7 -40 -8 -56 -2 -13 5 -36 7 -52 6 -15 -2 -35 -4 -43 -5 -36 -3 17 -21
63 -21 54 0 61 -14 22 -50 -14 -13 -25 -27 -25 -32 0 -4 11 -8 25 -8 16 0 25
-6 25 -15 0 -12 -14 -15 -65 -15 -74 0 -78 6 -39 57 25 32 25 33 4 33 -13 0
-24 8 -27 20 -8 29 -70 46 -117 30 -20 -6 -46 -8 -58 -4 -13 4 -69 7 -125 6
-81 -2 -103 0 -103 11 0 40 -99 65 -128 32z m278 -66 c8 -1 24 2 36 6 33 11
54 -18 54 -76 0 -48 -1 -49 -30 -49 -30 0 -30 0 -25 45 5 36 3 45 -10 45 -11
0 -15 -11 -15 -45 0 -44 -1 -45 -31 -45 -30 0 -30 1 -27 43 2 32 -1 42 -12 42
-11 0 -14 -10 -12 -42 3 -42 3 -43 -27 -43 l-31 0 0 63 0 62 58 -3 c31 -1 64
-3 72 -3z m227 -11 c7 -6 13 -32 13 -59 l0 -49 -60 0 c-48 0 -61 4 -70 19 -13
25 11 51 45 51 13 0 26 4 30 9 8 15 -15 25 -28 12 -18 -18 -49 -14 -45 6 6 31
83 38 115 11z m290 1 c16 -14 17 -81 1 -97 -17 -17 -103 -15 -117 2 -7 8 -11
32 -9 53 2 28 9 41 28 51 27 13 74 9 97 -9z"/>
<path d="M2482 1597 c-14 -16 -51 -159 -45 -170 9 -15 16 1 38 85 l22 83 37 0
c21 0 41 -4 44 -10 8 -11 41 -143 42 -162 0 -15 -56 -18 -65 -3 -3 6 -17 10
-31 10 -13 0 -24 -4 -24 -10 0 -5 -9 -10 -20 -10 -11 0 -20 -5 -20 -11 0 -7
10 -9 28 -5 15 4 34 7 42 6 142 -10 170 -11 170 -1 0 6 -16 11 -36 11 -21 0
-33 4 -29 10 4 6 3 45 0 89 -7 76 -8 78 -39 89 -43 16 -101 15 -114 -1z"/>
<path d="M452 1575 c-79 -55 -115 -118 -116 -202 -1 -52 3 -65 23 -87 14 -14
32 -26 40 -25 11 0 10 3 -5 11 -46 22 -57 103 -25 173 28 61 115 152 94 99 -5
-14 -3 -14 14 -4 19 12 28 46 15 54 -4 2 -22 -7 -40 -19z"/>
<path d="M2707 1583 c-11 -11 -8 -163 3 -163 6 0 10 35 10 85 0 85 -1 91 -13
78z"/>
<path d="M657 1557 c3 -14 0 -35 -7 -47 -10 -18 -9 -21 2 -18 16 5 24 66 10
80 -6 6 -8 0 -5 -15z"/>
<path d="M1617 1505 c-3 -17 -1 -34 3 -39 14 -14 24 22 13 47 -9 21 -10 20
-16 -8z"/>
<path d="M2520 1516 c0 -8 -3 -21 -6 -30 -4 -11 0 -16 14 -16 15 0 18 5 14 25
-5 28 -22 44 -22 21z"/>
<path d="M702 1497 c-6 -6 -14 -25 -17 -40 -9 -33 -118 -147 -142 -148 -11 0
-13 -3 -5 -6 6 -2 10 -9 6 -14 -12 -20 21 -7 65 25 64 48 159 146 140 146 -8
0 -20 -5 -26 -11 -8 -8 -13 -7 -18 2 -5 7 -1 17 8 24 18 13 23 35 8 35 -5 0
-13 -6 -19 -13z"/>
<path d="M1397 1462 c-22 -24 -21 -45 1 -65 24 -22 35 -21 55 1 21 23 22 46 1
66 -20 21 -37 20 -57 -2z m53 -27 c0 -9 -7 -18 -16 -22 -18 -7 -39 11 -30 26
11 17 46 13 46 -4z"/>
<path d="M628 1456 c-10 -7 -15 -15 -13 -18 3 -3 -14 -25 -37 -49 -36 -37 -38
-41 -13 -25 38 23 85 75 85 92 0 17 0 17 -22 0z"/>
<path d="M752 1400 c-29 -31 -77 -75 -107 -96 -30 -22 -54 -43 -55 -47 -1 -17
88 45 162 113 42 38 82 70 88 70 6 0 8 5 5 10 -13 21 -42 6 -93 -50z"/>
<path d="M915 1452 c-5 -4 -23 -32 -39 -62 -16 -30 -40 -67 -54 -82 -14 -16
-21 -28 -16 -28 21 0 134 147 134 173 0 9 -12 9 -25 -1z"/>
<path d="M1389 1319 c-16 -30 3 -69 34 -69 29 0 47 17 47 45 0 45 -60 63 -81
24z m59 -22 c4 -21 -27 -35 -38 -17 -12 19 0 42 19 38 9 -2 17 -11 19 -21z"/>
<path d="M1402 1194 c-12 -8 -22 -23 -22 -33 0 -21 30 -51 51 -51 39 0 52 55
21 83 -23 21 -22 21 -50 1z m45 -30 c8 -22 -18 -37 -36 -20 -7 8 -10 19 -7 25
10 16 36 13 43 -5z"/>
<path d="M1397 1052 c-22 -24 -21 -45 1 -65 24 -22 35 -21 55 1 21 23 22 46 1
66 -20 21 -37 20 -57 -2z m53 -27 c0 -9 -7 -18 -16 -22 -18 -7 -39 11 -30 26
11 17 46 13 46 -4z"/>
</g>
</svg>
